<mxfile host="65bd71144e">
    <diagram name="Page-1" id="8NoAi405iV9w-lXr4pfd">
        <mxGraphModel dx="1040" dy="578" grid="1" gridSize="10" guides="1" tooltips="1" connect="1" arrows="1" fold="1" page="1" pageScale="1" pageWidth="850" pageHeight="1100" background="none" math="0" shadow="0">
            <root>
                <mxCell id="0"/>
                <mxCell id="1" parent="0"/>
                <mxCell id="44" value="" style="ellipse;whiteSpace=wrap;html=1;fontSize=10;fillColor=#4D4D4D;fontColor=#ffffff;strokeColor=#1A7633;movable=1;resizable=1;rotatable=1;deletable=1;editable=1;connectable=1;" parent="1" vertex="1">
                    <mxGeometry x="22" y="18.119999999999997" width="760" height="435.88" as="geometry"/>
                </mxCell>
                <mxCell id="43" style="edgeStyle=none;html=1;startArrow=classic;startFill=1;entryX=0.506;entryY=1.084;entryDx=0;entryDy=0;entryPerimeter=0;fontSize=11;strokeColor=#000000;exitX=0.494;exitY=-0.061;exitDx=0;exitDy=0;exitPerimeter=0;" parent="1" source="159" target="155" edge="1">
                    <mxGeometry relative="1" as="geometry">
                        <mxPoint x="653.8173272338774" y="289.2577941565214" as="sourcePoint"/>
                        <mxPoint x="652.6217069676636" y="200.1972384000003" as="targetPoint"/>
                    </mxGeometry>
                </mxCell>
                <mxCell id="90" value="Асинхронный&#10;Streaming&#10;Replication" style="edgeLabel;align=center;verticalAlign=middle;resizable=0;points=[];fontSize=9;spacing=2;rotation=0;labelBorderColor=none;" parent="43" vertex="1" connectable="0">
                    <mxGeometry relative="1" as="geometry">
                        <mxPoint as="offset"/>
                    </mxGeometry>
                </mxCell>
                <mxCell id="50" value="" style="verticalLabelPosition=bottom;html=1;verticalAlign=top;align=center;strokeColor=none;fillColor=#00BEF2;shape=mxgraph.azure.vhd;pointerEvents=1;" parent="1" vertex="1">
                    <mxGeometry x="617.0037398373984" y="300.00239999999997" width="37.5609756097561" height="48" as="geometry"/>
                </mxCell>
                <mxCell id="51" style="edgeStyle=none;html=1;exitX=0.945;exitY=0.454;exitDx=0;exitDy=0;startArrow=classic;startFill=1;exitPerimeter=0;entryX=-0.069;entryY=0.719;entryDx=0;entryDy=0;entryPerimeter=0;strokeColor=#000000;" parent="1" source="159" target="50" edge="1">
                    <mxGeometry relative="1" as="geometry">
                        <mxPoint x="678.4286312756167" y="323.4269820521738" as="sourcePoint"/>
                        <mxPoint x="1068.766455284553" y="251.63335999999998" as="targetPoint"/>
                    </mxGeometry>
                </mxCell>
                <mxCell id="9" value="" style="aspect=fixed;perimeter=ellipsePerimeter;html=1;align=center;shadow=0;dashed=0;spacingTop=3;image;image=img/lib/active_directory/internet_globe.svg;" parent="1" vertex="1">
                    <mxGeometry x="221.96747967479672" y="238.64" width="37.70991304347826" height="37.70991304347826" as="geometry"/>
                </mxCell>
                <mxCell id="11" value="" style="edgeStyle=none;startArrow=classic;startFill=1;entryX=0;entryY=0.5;entryDx=0;entryDy=0;strokeColor=#000000;" parent="1" source="97" target="9" edge="1">
                    <mxGeometry relative="1" as="geometry">
                        <mxPoint x="258.80487804878044" y="294.2080000000002" as="targetPoint"/>
                        <mxPoint x="132.06730436977887" y="265.11999999999983" as="sourcePoint"/>
                    </mxGeometry>
                </mxCell>
                <mxCell id="72" value="HTTP" style="edgeLabel;align=center;verticalAlign=middle;resizable=0;points=[];fontSize=7;" parent="11" vertex="1" connectable="0">
                    <mxGeometry x="0.058" relative="1" as="geometry">
                        <mxPoint x="-1" as="offset"/>
                    </mxGeometry>
                </mxCell>
                <mxCell id="31" style="edgeStyle=none;html=1;entryX=0.009;entryY=0.735;entryDx=0;entryDy=0;entryPerimeter=0;startArrow=classic;startFill=1;strokeColor=#000000;" parent="1" source="9" target="173" edge="1">
                    <mxGeometry relative="1" as="geometry">
                        <mxPoint x="303.34358" y="257.7904100000002" as="targetPoint"/>
                    </mxGeometry>
                </mxCell>
                <mxCell id="75" value="HTTP" style="edgeLabel;html=1;align=center;verticalAlign=middle;resizable=0;points=[];fontSize=7;" parent="31" vertex="1" connectable="0">
                    <mxGeometry x="0.212" relative="1" as="geometry">
                        <mxPoint x="-5" y="-1" as="offset"/>
                    </mxGeometry>
                </mxCell>
                <mxCell id="30" style="edgeStyle=none;html=1;exitX=0.867;exitY=0.005;exitDx=0;exitDy=0;entryX=-0.032;entryY=0.732;entryDx=0;entryDy=0;entryPerimeter=0;startArrow=classic;startFill=1;exitPerimeter=0;strokeColor=#000000;" parent="1" source="174" target="20" edge="1">
                    <mxGeometry relative="1" as="geometry">
                        <mxPoint x="353.5088599999999" y="230.16911000000005" as="sourcePoint"/>
                        <mxPoint x="622.520325203252" y="217.17823999999993" as="targetPoint"/>
                    </mxGeometry>
                </mxCell>
                <mxCell id="77" value="HTTP" style="edgeLabel;align=center;verticalAlign=middle;resizable=0;points=[];fontSize=7;" parent="30" vertex="1" connectable="0">
                    <mxGeometry relative="1" as="geometry">
                        <mxPoint x="15" y="-17" as="offset"/>
                    </mxGeometry>
                </mxCell>
                <mxCell id="96" value="&lt;font color=&quot;#ffffff&quot; style=&quot;font-size: 10px;&quot;&gt;HDD-1 - PostgreSQL_dump&lt;/font&gt;" style="text;strokeColor=none;align=center;fillColor=none;html=1;verticalAlign=middle;whiteSpace=wrap;rounded=0;fontSize=10;" parent="1" vertex="1">
                    <mxGeometry x="596.1843089430894" y="360.64079999999996" width="79.1910569105691" height="22.2592" as="geometry"/>
                </mxCell>
                <mxCell id="97" value="&lt;font color=&quot;#ffffff&quot; style=&quot;font-size: 10px;&quot;&gt;devices&lt;/font&gt;" style="sketch=0;outlineConnect=0;dashed=0;verticalLabelPosition=bottom;verticalAlign=top;align=center;html=1;fontSize=7;fontStyle=0;shape=mxgraph.aws4.illustration_devices;pointerEvents=1;aspect=fixed;fillColor=#3333FF;strokeColor=#3700CC;fontColor=#ffffff;" parent="1" vertex="1">
                    <mxGeometry x="102.3" y="230" width="75.06" height="52.54" as="geometry"/>
                </mxCell>
                <mxCell id="20" value="" style="sketch=0;html=1;aspect=fixed;strokeColor=none;shadow=0;align=center;verticalAlign=top;fillColor=#3B8DF1;shape=mxgraph.gcp2.cloud_server" parent="1" vertex="1">
                    <mxGeometry x="500.03" y="110.00000000000001" width="48.93" height="43.54" as="geometry"/>
                </mxCell>
                <mxCell id="18" value="&lt;font style=&quot;font-size: 10px;&quot; color=&quot;#ffffff&quot;&gt;VM-2 - Nginx proxy, &lt;br&gt;Zabbix, Terraform,&lt;br&gt;Ansible,&amp;nbsp;&lt;/font&gt;&lt;font color=&quot;#ffffff&quot;&gt;Keepalived, &lt;br&gt;ZooKeeper, HAProxy&lt;/font&gt;" style="text;strokeColor=none;align=center;fillColor=none;html=1;verticalAlign=middle;whiteSpace=wrap;rounded=0;fontSize=10;glass=0;shadow=0;strokeWidth=1;" parent="1" vertex="1">
                    <mxGeometry x="290.97" y="110.77000000000001" width="101" height="47.23" as="geometry"/>
                </mxCell>
                <mxCell id="155" value="" style="sketch=0;html=1;aspect=fixed;strokeColor=none;shadow=0;align=center;verticalAlign=top;fillColor=#3B8DF1;shape=mxgraph.gcp2.cloud_server" parent="1" vertex="1">
                    <mxGeometry x="500.03" y="230" width="48.93" height="43.54" as="geometry"/>
                </mxCell>
                <mxCell id="157" style="edgeStyle=none;html=1;exitX=0.99;exitY=0.489;exitDx=0;exitDy=0;entryX=0.057;entryY=0.494;entryDx=0;entryDy=0;entryPerimeter=0;startArrow=classic;startFill=1;exitPerimeter=0;strokeColor=#000000;" parent="1" source="174" target="155" edge="1">
                    <mxGeometry relative="1" as="geometry">
                        <mxPoint x="361.0463199999999" y="252.88621999999998" as="sourcePoint"/>
                        <mxPoint x="375.2385200000001" y="224.28354000000002" as="targetPoint"/>
                    </mxGeometry>
                </mxCell>
                <mxCell id="158" value="HTTP" style="edgeLabel;align=center;verticalAlign=middle;resizable=0;points=[];fontSize=7;" parent="157" vertex="1" connectable="0">
                    <mxGeometry relative="1" as="geometry">
                        <mxPoint x="-7" y="4" as="offset"/>
                    </mxGeometry>
                </mxCell>
                <mxCell id="159" value="" style="sketch=0;html=1;aspect=fixed;strokeColor=none;shadow=0;align=center;verticalAlign=top;fillColor=#3B8DF1;shape=mxgraph.gcp2.cloud_server" parent="1" vertex="1">
                    <mxGeometry x="500.03" y="350" width="48.93" height="43.54" as="geometry"/>
                </mxCell>
                <mxCell id="160" value="&lt;p style=&quot;line-height: 120%; font-size: 10px;&quot;&gt;&lt;font color=&quot;#ffffff&quot; style=&quot;font-size: 10px;&quot;&gt;VM-5 - server MediaWiki-3,&lt;br&gt;&lt;/font&gt;&lt;span style=&quot;color: rgb(255, 255, 255);&quot;&gt;Standby PostgreSQL (&lt;/span&gt;&lt;span style=&quot;color: rgb(255, 255, 255);&quot;&gt;read), Patroni&lt;/span&gt;&lt;font color=&quot;#ffffff&quot; style=&quot;font-size: 10px;&quot;&gt;&lt;br&gt;&lt;/font&gt;&lt;/p&gt;" style="text;strokeColor=none;align=center;fillColor=none;html=1;verticalAlign=middle;whiteSpace=wrap;rounded=0;fontSize=10;" parent="1" vertex="1">
                    <mxGeometry x="448.97" y="390" width="155" height="50" as="geometry"/>
                </mxCell>
                <mxCell id="161" style="edgeStyle=none;html=1;exitX=0.99;exitY=0.726;exitDx=0;exitDy=0;entryX=0.13;entryY=0.171;entryDx=0;entryDy=0;entryPerimeter=0;startArrow=classic;startFill=1;exitPerimeter=0;strokeColor=#000000;" parent="1" source="174" target="159" edge="1">
                    <mxGeometry relative="1" as="geometry">
                        <mxPoint x="364.6567" y="271.43195000000003" as="sourcePoint"/>
                        <mxPoint x="385.7890100000001" y="269.78876" as="targetPoint"/>
                    </mxGeometry>
                </mxCell>
                <mxCell id="162" value="HTTP" style="edgeLabel;align=center;verticalAlign=middle;resizable=0;points=[];fontSize=7;" parent="161" vertex="1" connectable="0">
                    <mxGeometry relative="1" as="geometry">
                        <mxPoint as="offset"/>
                    </mxGeometry>
                </mxCell>
                <mxCell id="167" value="" style="edgeStyle=none;exitX=0.52;exitY=-0.025;exitDx=0;exitDy=0;startArrow=classic;startFill=1;exitPerimeter=0;strokeColor=#000000;html=1;entryX=0.506;entryY=1.064;entryDx=0;entryDy=0;entryPerimeter=0;" parent="1" source="155" target="20" edge="1">
                    <mxGeometry relative="1" as="geometry">
                        <mxPoint x="428.7006200000001" y="266.30556" as="sourcePoint"/>
                        <mxPoint x="629.16261753462" y="180.40860800000019" as="targetPoint"/>
                    </mxGeometry>
                </mxCell>
                <mxCell id="168" value="SQL" style="edgeLabel;html=1;align=center;verticalAlign=middle;resizable=0;points=[];fontSize=7;" parent="167" vertex="1" connectable="0">
                    <mxGeometry relative="1" as="geometry">
                        <mxPoint as="offset"/>
                    </mxGeometry>
                </mxCell>
                <mxCell id="169" value="&lt;font style=&quot;font-size: 7px;&quot; color=&quot;#ffffff&quot;&gt;Internet&lt;/font&gt;" style="text;strokeColor=none;align=center;fillColor=none;html=1;verticalAlign=middle;whiteSpace=wrap;rounded=0;fontSize=7;" parent="1" vertex="1">
                    <mxGeometry x="224.48" y="275.38" width="32.68" height="14.74" as="geometry"/>
                </mxCell>
                <mxCell id="171" value="&lt;p style=&quot;line-height: 120%; font-size: 10px;&quot;&gt;&lt;font color=&quot;#ffffff&quot; style=&quot;font-size: 10px;&quot;&gt;VM-4 - server MediaWiki-1&lt;/font&gt;&lt;/p&gt;" style="text;strokeColor=none;align=center;fillColor=none;html=1;verticalAlign=middle;whiteSpace=wrap;rounded=0;fontSize=10;" parent="1" vertex="1">
                    <mxGeometry x="491.22" y="80" width="70.5" height="20" as="geometry"/>
                </mxCell>
                <mxCell id="173" value="" style="sketch=0;html=1;aspect=fixed;strokeColor=none;shadow=0;align=center;verticalAlign=top;fillColor=#3B8DF1;shape=mxgraph.gcp2.cloud_server" parent="1" vertex="1">
                    <mxGeometry x="317" y="163.54000000000002" width="48.93" height="43.54" as="geometry"/>
                </mxCell>
                <mxCell id="174" value="" style="sketch=0;html=1;aspect=fixed;strokeColor=none;shadow=0;align=center;verticalAlign=top;fillColor=#3B8DF1;shape=mxgraph.gcp2.cloud_server" parent="1" vertex="1">
                    <mxGeometry x="317" y="300" width="48.93" height="43.54" as="geometry"/>
                </mxCell>
                <mxCell id="175" value="&lt;font style=&quot;font-size: 10px;&quot; color=&quot;#ffffff&quot;&gt;VM-3 - Nginx proxy, &lt;br&gt;Zabbix, Terraform,&lt;br&gt;Ansible,&amp;nbsp;&lt;/font&gt;&lt;font color=&quot;#ffffff&quot;&gt;Keepalived, &lt;br&gt;ZooKeeper, HAProxy&lt;/font&gt;" style="text;strokeColor=none;align=center;fillColor=none;html=1;verticalAlign=middle;whiteSpace=wrap;rounded=0;fontSize=10;glass=0;shadow=0;strokeWidth=1;" parent="1" vertex="1">
                    <mxGeometry x="290.97" y="350" width="101" height="47.23" as="geometry"/>
                </mxCell>
                <mxCell id="176" style="edgeStyle=none;html=1;entryX=0.03;entryY=0.526;entryDx=0;entryDy=0;entryPerimeter=0;startArrow=classic;startFill=1;strokeColor=#000000;exitX=1;exitY=0.75;exitDx=0;exitDy=0;" parent="1" source="9" target="174" edge="1">
                    <mxGeometry relative="1" as="geometry">
                        <mxPoint x="342.31373999999994" y="206.6483599999999" as="targetPoint"/>
                        <mxPoint x="266.54840866141353" y="257.0928809850752" as="sourcePoint"/>
                    </mxGeometry>
                </mxCell>
                <mxCell id="177" value="HTTP" style="edgeLabel;html=1;align=center;verticalAlign=middle;resizable=0;points=[];fontSize=7;" parent="176" vertex="1" connectable="0">
                    <mxGeometry x="0.212" relative="1" as="geometry">
                        <mxPoint x="-5" y="-1" as="offset"/>
                    </mxGeometry>
                </mxCell>
                <mxCell id="179" style="edgeStyle=none;html=1;exitX=0.886;exitY=0.34;exitDx=0;exitDy=0;entryX=0.025;entryY=0.418;entryDx=0;entryDy=0;entryPerimeter=0;startArrow=classic;startFill=1;exitPerimeter=0;strokeColor=#000000;" parent="1" source="173" target="20" edge="1">
                    <mxGeometry relative="1" as="geometry">
                        <mxPoint x="377.00510999999995" y="296.67478000000006" as="sourcePoint"/>
                        <mxPoint x="477.00424" y="171.87128000000007" as="targetPoint"/>
                    </mxGeometry>
                </mxCell>
                <mxCell id="180" value="HTTP" style="edgeLabel;align=center;verticalAlign=middle;resizable=0;points=[];fontSize=7;" parent="179" vertex="1" connectable="0">
                    <mxGeometry relative="1" as="geometry">
                        <mxPoint as="offset"/>
                    </mxGeometry>
                </mxCell>
                <mxCell id="181" style="edgeStyle=none;html=1;exitX=0.966;exitY=0.73;exitDx=0;exitDy=0;entryX=0.083;entryY=0.244;entryDx=0;entryDy=0;entryPerimeter=0;startArrow=classic;startFill=1;exitPerimeter=0;strokeColor=#000000;" parent="1" source="173" target="155" edge="1">
                    <mxGeometry relative="1" as="geometry">
                        <mxPoint x="379.80412" y="155.41315999999995" as="sourcePoint"/>
                        <mxPoint x="479.79324999999994" y="158.19971999999996" as="targetPoint"/>
                    </mxGeometry>
                </mxCell>
                <mxCell id="182" value="HTTP" style="edgeLabel;align=center;verticalAlign=middle;resizable=0;points=[];fontSize=7;" parent="181" vertex="1" connectable="0">
                    <mxGeometry relative="1" as="geometry">
                        <mxPoint as="offset"/>
                    </mxGeometry>
                </mxCell>
                <mxCell id="183" style="edgeStyle=none;html=1;exitX=1.032;exitY=1.001;exitDx=0;exitDy=0;entryX=0.183;entryY=0.029;entryDx=0;entryDy=0;entryPerimeter=0;startArrow=classic;startFill=1;exitPerimeter=0;strokeColor=#000000;" parent="1" source="173" target="159" edge="1">
                    <mxGeometry relative="1" as="geometry">
                        <mxPoint x="383.81637999999987" y="171.78420000000006" as="sourcePoint"/>
                        <mxPoint x="485.38127" y="230.21769999999992" as="targetPoint"/>
                    </mxGeometry>
                </mxCell>
                <mxCell id="184" value="HTTP" style="edgeLabel;align=center;verticalAlign=middle;resizable=0;points=[];fontSize=7;" parent="183" vertex="1" connectable="0">
                    <mxGeometry relative="1" as="geometry">
                        <mxPoint x="-21" y="-19" as="offset"/>
                    </mxGeometry>
                </mxCell>
                <mxCell id="191" style="edgeStyle=none;html=1;entryX=0.478;entryY=1.067;entryDx=0;entryDy=0;entryPerimeter=0;startArrow=classic;startFill=1;strokeColor=#000000;exitX=0.478;exitY=-0.049;exitDx=0;exitDy=0;exitPerimeter=0;" parent="1" source="174" target="173" edge="1">
                    <mxGeometry relative="1" as="geometry">
                        <mxPoint x="327.44037000000003" y="205.54189999999994" as="targetPoint"/>
                        <mxPoint x="265.45603192463966" y="255.60515999265476" as="sourcePoint"/>
                    </mxGeometry>
                </mxCell>
                <mxCell id="194" value="" style="edgeStyle=none;exitX=0.61;exitY=-0.067;exitDx=0;exitDy=0;startArrow=classic;startFill=1;exitPerimeter=0;strokeColor=#000000;html=1;entryX=0.943;entryY=1.016;entryDx=0;entryDy=0;entryPerimeter=0;" parent="1" source="159" target="20" edge="1">
                    <mxGeometry relative="1" as="geometry">
                        <mxPoint x="535.4736" y="215.9915000000001" as="sourcePoint"/>
                        <mxPoint x="534.7885799999999" y="166.32655999999997" as="targetPoint"/>
                        <Array as="points">
                            <mxPoint x="647" y="260"/>
                        </Array>
                    </mxGeometry>
                </mxCell>
                <mxCell id="195" value="SQL" style="edgeLabel;html=1;align=center;verticalAlign=middle;resizable=0;points=[];fontSize=7;" parent="194" vertex="1" connectable="0">
                    <mxGeometry relative="1" as="geometry">
                        <mxPoint as="offset"/>
                    </mxGeometry>
                </mxCell>
                <mxCell id="193" value="&lt;p style=&quot;line-height: 120%; font-size: 10px;&quot;&gt;&lt;font color=&quot;#ffffff&quot; style=&quot;font-size: 10px;&quot;&gt;VM-3 - server MediaWiki-2,&lt;br&gt;&lt;/font&gt;&lt;span style=&quot;color: rgb(255, 255, 255);&quot;&gt;Primary PostgreSQL (&lt;/span&gt;&lt;span style=&quot;color: rgb(255, 255, 255);&quot;&gt;read/write), patroni&lt;/span&gt;&lt;font color=&quot;#ffffff&quot; style=&quot;font-size: 10px;&quot;&gt;&lt;br&gt;&lt;/font&gt;&lt;/p&gt;" style="text;strokeColor=none;align=center;fillColor=none;html=1;verticalAlign=middle;whiteSpace=wrap;rounded=0;fontSize=10;" parent="1" vertex="1">
                    <mxGeometry x="547" y="207.08" width="155" height="50" as="geometry"/>
                </mxCell>
                <mxCell id="199" value="" style="ellipse;shape=cloud;whiteSpace=wrap;html=1;fillColor=default;opacity=60;" vertex="1" parent="1">
                    <mxGeometry x="108.8" y="60" width="191.2" height="146.77" as="geometry"/>
                </mxCell>
                <mxCell id="197" value="&lt;font style=&quot;font-size: 10px;&quot; color=&quot;#ffffff&quot;&gt;VM-1 -&amp;nbsp;&lt;/font&gt;Service VM. Admin entry point, deployment, management, Python scripts" style="text;strokeColor=none;align=center;fillColor=none;html=1;verticalAlign=middle;whiteSpace=wrap;rounded=0;fontSize=10;glass=0;shadow=0;strokeWidth=1;" vertex="1" parent="1">
                    <mxGeometry x="140" y="123.54" width="127.16" height="73.69" as="geometry"/>
                </mxCell>
                <mxCell id="198" value="" style="sketch=0;html=1;aspect=fixed;strokeColor=none;shadow=0;align=center;verticalAlign=top;fillColor=#3B8DF1;shape=mxgraph.gcp2.cloud_server" vertex="1" parent="1">
                    <mxGeometry x="179.10999999999996" y="90.00000000000003" width="48.93" height="43.54" as="geometry"/>
                </mxCell>
            </root>
        </mxGraphModel>
    </diagram>
</mxfile>